<?xml version="1.0" encoding="UTF-8"?>
<svg id="Layer_2" data-name="Layer 2" xmlns="http://www.w3.org/2000/svg" viewBox="0 0 1049.59 386.74">
  <defs>
    <style>
      .cls-1, .cls-2 {
        fill: #0029b7;
      }

      .cls-3 {
        stroke: #0029b7;
        stroke-width: 2px;
      }

      .cls-3, .cls-4, .cls-5 {
        fill: none;
      }

      .cls-3, .cls-5 {
        stroke-miterlimit: 10;
      }

      .cls-6 {
        fill: #32a540;
      }

      .cls-7 {
        fill: #33a6fc;
      }

      .cls-8 {
        fill: #2780d2;
      }

      .cls-9 {
        fill: #e6f92e;
      }

      .cls-10 {
        fill: #fff;
      }

      .cls-11 {
        fill: #32b2dd;
      }

      .cls-2 {
        font-family: GillSansMT, 'Gill Sans MT';
        font-size: 179.21px;
      }

      .cls-12 {
        fill: #36a7e8;
      }

      .cls-13 {
        fill: #38bc98;
      }

      .cls-14 {
        fill: #36b0ce;
      }

      .cls-5 {
        stroke: #33a6fc;
        stroke-width: .19px;
      }

      .cls-15 {
        fill: #359ff2;
      }
    </style>
  </defs>
  <g id="Layer_1-2" data-name="Layer 1">
    <text class="cls-2" transform="translate(0 150.72)"><tspan x="0" y="0">NextGen </tspan></text>
    <text class="cls-2" transform="translate(150.93 336.16)"><tspan x="0" y="0">Consultancy</tspan></text>
    <g>
      <ellipse class="cls-10" cx="759.39" cy="96.55" rx="70.01" ry="69.96"/>
      <g>
        <g>
          <path class="cls-7" d="M752.85,166.11c4.25,0,8.5,0,12.75,0-4.25.54-8.5.51-12.75,0Z"/>
          <g>
            <path class="cls-7" d="M689.71,90.63c.11-3.07.58-6.09,1.38-9.06.37.64,1.02,1.27.9,2.01-.32,1.91.81,2.71,2.25,3.39,1.71.81,3.28,2.04,5.37,1.6.59-.13.98.35,1.22.75.52.87,1.28,1.26,2.23,1.37,0,.59,0,1.18,0,1.78,0,.3,0,.63.39.69.15.02.37-.02.46-.12.23-.25.16-.54-.04-.8-.7-.93-.12-1.06.66-1.06.28.14.46.37.58.65.73,1.65,1.89,2.9,3.5,3.71.59.3,1.21.77,1.61-.24.37-.02.58.17.53.52-.15,1.16.55.54.99.49.58,1.71.31,3.21-.82,4.69-.73.95-1.67,2.05-.76,3.48.22.35.07.82-.17,1.21-.53.86-.17,1.78.39,2.28,1.26,1.13,1.8,2.62,2.53,4.03,1.05,2.03,2.11,4.01,4.4,5,1.07.46,2,1.33,2.12,2.67.1,1.09.19,2.19.32,3.27.28,2.38-.02,4.81.75,7.13-.02,1.38-.05,2.76-.04,4.14,0,.34-.14.77.32.99.06.05.12.08.19.09.41,1.14.68,2.31.85,3.51.04.3.22.71.46.83.77.38.91.49.54,1.19-.17.32-.36.63-.25.94.46,1.37.98,2.72,1.48,4.07-.03.25.03.52-.19.72-.39.36-.37.7-.01,1.1.32.36.57.39.95.06.15-.13.49-.05.74-.07,1.12,1.2,2.61,1.84,4.06,2.46.52.22,1.49.4,1.82-.38.34-.83-.6-.81-1.05-1.09-1.64-1.03-2.29-2.39-1.68-3.71.47-1.02.34-1.82-.66-2.33-.53-.27-.47-.69-.25-.91.6-.58.3-1.46.83-2.05.13-.14.21-.51-.19-.74-.99-.56-.35-.83.25-1.06.15-.04.3-.08.45-.12-.31-1.02.36-1.41,1.12-1.75.02,0,.02-.08.02-.12,1.52-.21,1.87-.98,1.05-2.28-.43-.68-.57-1.16.56-1.11,1.07.05,1.76-.51,1.91-1.58.11-.73.52-1.29.84-1.92.59-1.14,1.41-2.2,1.02-3.67-.38-1.4.72-1.85,1.72-2.36,1.03-.51,2.43-.47,2.95-1.78.76-1.94,1.17-3.96.86-6.04-.06-.4-.02-.69.06-1.06.32-1.52,1.46-2.59,2.08-3.94.76-1.67.22-3.13-1.47-3.61-.26-.07-.31-.25-.37-.45.03-.47.08-.91.49-1.25.81-.69.32-.97-.41-1.07-.37-.05-.77-.02-1.14.05-2.2.43-3.85-.34-5.05-2.38,1.34.37,1.92-.9,3.26-1.35-1-.22-1.62-.34-2.25.07-.87.56-1.6.25-1.96-.6-.23-.55-.5-.75-1.02-.68-1.5.22-2.07-.91-2.76-1.87-.26-.36-.55-.67-.23-1.13.15-.21.37-.43-.06-.55-.27-.07-.5.01-.59.32-.09.27.07.8-.25.77-1.54-.14-.05.65-.29.88-1.89.26-3.09-.77-4.18-2.15-.79-1-1.45-2.23-3.16-1.97-1.17.18-2.43.25-3.52-.55-.62-.45-1.7.23-2.1-.83,0-.02-.23,0-.31.06-.99.64-2.34.78-2.75,2.24-.13.47-.82,1.23-1.44.18-.31-.37,1.04-.69.03-1.07,0-.18,0-.35-.01-.53-.51-.54-1.66-.82-2.07-.5-.16,0-.32,0-.49,0h0c-.21-.61-1.12-1.35.31-1.67.09-.02.19-.28.19-.44.02-.95,0-1.91,0-2.88-1.23.18-.82,1.26-1.25,1.82-.39-.29-.19-.97-.81-.94-.69-1.03-1.57-.31-2.38-.29.4.44.91.24,1.38.31v.47c-.25.01-.5.03-.76.03-1.31.02-1.71-.46-1.18-1.61.23-.51.44-.97.44-1.52.92-.47.66-1.43.28-1.77-.41-.37-1.38-.75-1.85.29-.37.14-.41.48-.54.79-.6,1.4-1.91,2.11-3.1,1.64-.96-.38-1.46-1.28-1.73-2.18-.48-1.59.06-3.05.63-4.57.89-2.37,1.98-3.15,4.39-2.63.58.12,1.17.04,1.57-.32.79-.7,1.82-.66,2.48-.31.65.34,2.09-.22,1.95,1.33-.07.83.25,1.52,1.2,1.35.92-.16.72-1.13.54-1.57-.6-1.46.04-2.37,1.04-3.28.71-.65,1.49-1.16,2.36-1.58.84-.41,1.45-.97,1.29-2.05-.05-.31-.19-.78.15-.95,1.4-.72,2.06-2.37,3.66-2.84.7-.2,1.34-.52,1.55-1.42.16-.68.78-1.06,1.56-.96.46.3,1.13.4.6,1.29-.29.48.32.8.73.63.36-.14.53-.13.88.04.78.37,1.5.07,1.78-.7.38-1.09.82-.71,1.36-.2.22.21.44.41.64.63.32.36.68.56,1.1.19.35-.3.64-.59.47-1.19-.25-.87.09-1.75.32-2.59.07-.25.37-.67.9-.31.68.46,1.49.15,2.25.19.45.03.28-.3.21-.53-.02-.92.35-1.94-.79-2.54-.42-.22-.26-.71-.06-1.01.57-.87.57-1.77.3-2.72.16-.12.31-.3.5-.35.32-.08.58-.17.56-.56-.03-.49-.4-.46-.74-.49-.2-.02-.4-.07-.61-.1.39-1.2.8-1.29-.4-3.46-.19-.35-.47-.74.03-.91.37-.12.71.21.72.68.01.58.31.92,1.17,1.25-.88-1.32-.27-1.68.92-1.7-.98-.81-1.95-.93-3.12-.98.49-.67.57-1.77,1.59-.67.06.07.31.08.32.05.06-.15.13-.32.1-.47-.07-.4-.46-.46-.75-.63.1-.08.2-.17.3-.25.91.1,1.49-.25,1.5-1.21.01-1.19-.93-.76-1.56-.85-.68-.19-1.04-.6-1-1.33.01-.23.06-.55-.24-.66-1.82-.67-3.14-2.57-5.39-2.15-1.03-1.24-2.05-.59-3.07,0-.16.02-.33.03-.49.05-.66.05-.4-.71-.82-.93-.19.26-.38.51-.56.76-1.06-.8-1.69-.24-2.22.69,0,0-.01.02-.01.02-.42.12-.73-.03-.93-.4-.23-.43-.53-.26-.84-.13-.1,0-.2.02-.3.03-.26-.04-.51-.07-.77-.11,3.26-2.41,6.68-4.53,10.29-6.41,5.24-2.73,10.73-4.7,16.47-6,1.95-.44,3.89-.85,5.92-.95,1.24-.06,2.48-.55,3.77-.44,3.67,0,7.34,0,11.01,0,3.72.37,7.46.55,11.06,1.75,1.75.58,3.57.96,5.36,1.42.43,1.43,1.62.79,2.52.93,2.46.84,4.91,1.69,7.06,3.21.33.23.78.3,1.18.44-.1,1.38.89.93,1.59.95,0,0-.01-.02-.01-.02-.01.73.54.53.94.57,2.27,1,4.1,2.69,6.21,3.93.39.23.71.59,1.06.88-.08.26-.32.27-.53.34-1.47.08-1.85.72-1.46,2.53-.98.2-1.99-.67-2.85-.13-1.33.84-2.74.69-4.14.64-.98-.04-1.88.2-2.58.78-.96.81-1.48.68-1.83-.48.11-1.52-1.91.17-1.86-1.25-.16.02-.33.02-.48.07-.06.02-.13.12-.14.2-.09.63-.31.6-.82.3-.48-.29-1.07-.11-1.57.18-1.15-.19-2.41-.15-3.43-.63-1.96-.92-3.83-.96-5.78-.15-2.01.22-3.44,1.25-4.34,3.05l-.02.02c-1,1.37-2.54,1.91-3.99,2.57-.34.15-.58.37-.61.74-.08.98-.15,2.08.69,2.69.63.46,1.51.23,2.19-.33.18-.15.46-.18.69-.27.09.08.17.17.26.25.02.5.37.8.64,1.17.17.23.29.68-.21.81-.27.07-.62.19-.68-.29-.04-.36-.15-.79-.57-.59-.37.18-1.04.22-.93.94v.25c-.24.57.46,1.63-.48,1.71-1.16.09-1.82.64-2.5,1.43-.59.67-1.19.74-1.52-.32-.19-.61-.58-1.09-1.04-1.53-.69-.67-1.34-1.38-1.16-2.49.1-.6-.31-.96-.83-1.08-.6-.14-1.22.19-1.38.67-.23.74-.41,1.75.35,2.23.95.61,1.15,1.06.35,1.94-.3.33-.48.84-.18,1.42.32.61.79.33,1.2.41.95.19,1.77-.46,2.67-.45-.06.35-.11.64-.16.93-1.15.2-2.11.92-3.28,1.11-.56.09-.31.6-.08.87.24.28.59.45.86.71.8.76.66,1.77.35,2.6-.26.7-1.13.32-1.73.35-.32.02-.64-.18-.97-.22-1.89-.2-2.34.21-2.31,2.02-.48.25-.2.75-.34,1.12-.63,1.75.02,2.67,1.86,2.83.44,1.47-.64,2.23-1.58,2.82-.67.42-.92.8-.96,1.53-.07,1.26-.51,2.29-1.77,2.9-.54.26-1.01.79-1.38,1.37-.62.99-.98,2.15-1.67,3.05-.64.84-.67,1.66-.49,2.48.25,1.15.24,2.24-.01,3.38-.24,1.09-.86,2.47-.11,3.31,1.7,1.91,2.69,4.37,4.86,5.96.98.72,1.71,1.3,2.9.8,1.36-.11,2.8.52,4.06-.45.21-.05.44-.04.61-.14,1.75-1,2.58-.86,3.85.72.31.39.71.41,1.14.41,1.89.04,2.19.42,1.8,2.29-.07.33-.22.63-.31.96-.3,1.08-.17,2.1.67,2.9,1.05,1.01,1.63,2.23,1.93,3.64.45,2.13.85,4.22-.28,6.29-.81,1.48-.66,3.05.15,4.48.53.93.65,1.96,1.01,2.92.42,1.15.4,2.38.79,3.55.65,1.97,2.39,3.58,2.02,5.91-.04.26.28.39.51.51.89,1.3,1.42,1.31,2.31,0,.68-.02,1.29-.29,1.93-.49,2.91-.89,4.11-3.3,5.3-5.76.29-.6-.07-1.64.76-1.8,1.67-.32,1.51-1.65,1.22-2.54-.55-1.65.42-2.42,1.33-3.37.63-.66,1.46-1.01,2.19-1.51,1.25-.6,1.63-3.03.64-4.09-.23-1.19-.44-2.39-.69-3.58-.18-.85-.39-1.84.01-2.5,1.08-1.82,1.97-3.88,3.68-5.18,2.22-1.68,3.53-3.91,4.53-6.36.29-.71.85-1.73.18-2.4-.64-.64-1.56-.29-2.34.14-.6.34-1.31.33-1.99.38-.7.05-.9-.32-.87-.92.26-.72,1.25-.45,1.54-1.13.33-.04.65-.09.97-.26,1.61-.88,3.15-1.91,4.72-2.81,1.56-.9,2.68-1.96,3.6-3.4.87-1.37.77-1.95-.57-2.83.21-.49.52-.86,1.07-.98,2.17.09,4.54-.6,6.22,1.52.03.03.16-.01.24-.02.85,1.02,1.17,2.86,3.18,1.91.27,3.84,1.77,7.15,3.19,10.49.18.42.45.46.79.47.36,0,.54-.15.75-.5.88-1.42,1.11-2.95,1.01-4.58-.04-.7.17-1.15.79-1.69,1.49-1.29,2.76-2.84,4.11-4.28.33.24,1.04.38.25.94-.11.08-.22.37-.18.43.73.83.13,1.71.15,2.57.1,3.12-.25,6.19-.74,9.27-.78,4.9-1.88,9.7-3.56,14.36-1.32,3.66-2.94,7.19-4.78,10.62-2.56,4.77-5.63,9.2-9.15,13.3-3.28,3.81-6.89,7.28-10.84,10.4-1.7,1.35-3.38,2.75-5.25,3.83-3.52,2.03-6.96,4.18-10.73,5.81-3.58,1.55-7.23,2.87-10.96,3.93-2.11.6-4.29,1.01-6.44,1.46-2.97.62-5.97,1-8.96,1.07-6.06.14-12.16.38-18.13-1.17-.69-.18-1.45-.18-2.11.24-4.19-1.55-8.1-3.62-11.83-6.07-5.31-3.48-10.11-7.58-14.28-12.37-8.28-9.5-13.78-20.4-16.17-32.82-.48-2.51-.97-5.03-.98-7.6,0-3.93,0-7.87,0-11.8ZM791.79,122.16c0,.34,0,.55,0,.76-.04.78.16,1.43,1.03,1.6.8.16,1.28-.12,1.66-.95.98-2.15,1.37-4.49,2.17-6.7.28-.76.72-1.51.56-2.42-.08-.44-.32-.73-.64-.88-.39-.18-.52.26-.74.5-.6.62-.91,1.51-1.84,1.81-1.32.42-1.67,1.45-1.41,2.67.3,1.39-1.23,2.35-.77,3.61ZM735.34,130.7c1.71-1.2,1.95-1.98,1.19-3.6-.08,1.31-.84,2.24-1.19,3.6ZM764.43,52.9c-.75-.28-1.49-.37-2.56.02,1.07.35,1.81.3,2.56-.02ZM728.37,38.52c-1.1-.32-1.84-.37-2.87.08,1.05.25,1.79.29,2.87-.08ZM719.22,138.73c.29-.75.36-1.49,0-2.56-.35,1.08-.3,1.82,0,2.56ZM799.21,115.96c-.26.59-.41,1.18.09,1.92.23-.78.25-1.35-.09-1.92Z"/>
            <path class="cls-7" d="M824.39,84.22c.94-.93,2.84-1.02,3.55-.17.21.63.35,1.27.29,1.94-.52.14-.81-.87-1.43-.28.24.83.92.84,1.59.86.16,1.02.38,2.03.31,3.08-.18,3.4.38,6.79.28,10.19-.11,1.57-.22,3.14-.33,4.72-.28.34-.36.77-.68,1.13-.43.48-.7,1.37.22,1.91-.33,3.17-1.11,6.23-2.08,9.25-.93.73-1.07,1.73-.97,2.82-1.8,5.46-4.29,10.59-7.5,15.36-4.05,6.01-8.77,11.44-14.48,15.95-1.96,1.54-3.93,3.12-6.09,4.35-2.78,1.58-5.33,3.6-8.41,4.64-.95.07-2.08-.31-2.51,1.03-2.61,1.34-5.4,2.18-8.21,2.98-.24.07-.5.08-.75.12-1.35.03-2.79-.31-3.84.95-2.56.53-5.12,1.04-7.75,1.09-4.25,0-8.5,0-12.75,0-2.54-.08-5.03-.49-7.5-1.07-1.17-1.12-2.63-1.04-4.08-.97-2.86-.64-5.62-1.57-8.29-2.79.66-.43,1.43-.42,2.11-.24,5.97,1.55,12.06,1.31,18.13,1.17,2.99-.07,5.99-.45,8.96-1.07,2.16-.45,4.33-.86,6.44-1.46,3.73-1.07,7.38-2.39,10.96-3.93,3.76-1.63,7.21-3.77,10.73-5.81,1.87-1.08,3.55-2.49,5.25-3.83,3.94-3.12,7.56-6.59,10.84-10.4,3.52-4.1,6.59-8.53,9.15-13.3,1.84-3.43,3.46-6.96,4.78-10.62,1.68-4.66,2.79-9.46,3.56-14.36.49-3.08.83-6.15.74-9.27-.03-.85.58-1.74-.15-2.57-.05-.05.07-.35.18-.43.79-.56.07-.7-.25-.94Z"/>
            <path class="cls-4" d="M705.15,85.45c0,.55-.21,1.02-.44,1.52-.53,1.16-.13,1.63,1.18,1.61.25,0,.51-.02.76-.03.75-.03,1.03.53,1.32,1.06v.51c-.11.41-.14.83-.2,1.24-.18,1.12-.1,2.14.91,3.04.88.78,1.38-.43,2.07-.11.09.15.17.3.26.45-.38,0-.81-.04-.77.55-.4,1.01-1.02.53-1.61.24-1.62-.81-2.77-2.06-3.5-3.71-.12-.28-.3-.51-.58-.65-.4-.45-.91-.56-1.48-.49-.95-.12-1.7-.5-2.23-1.37-.24-.4-.62-.87-1.22-.75-2.09.44-3.66-.79-5.37-1.6-1.44-.68-2.58-1.48-2.25-3.39.13-.75-.52-1.37-.9-2.01.71-3.93,1.79-7.78,3.37-11.42,2.37-5.5,5.2-10.74,8.87-15.54,2.59-3.4,5.49-6.46,8.51-9.45.11-.11.29-.16.44-.24,1.16.01,2.41.5,3.28-.87.21-.34,1.01-.44,1.33.31.32.74.72.05.73-.09.03-.67.4-1.46-.45-1.93-.09-.23-.35-.46-.19-.69.23-.32.42.05.6.14.92.47,1.71.28,2.42-.42,0,0,.01-.02.01-.02.29,0,.47.14.49.45-.55.45-.1,1.08-.3,1.6-.36,0-.71.01-.72.51h0c-.9-.12-1.32.43-.94,1.11.42.74.29,1.58.7,2.27-.59.17-1.13.49-1.66.75-1.46.74-3.2,1.01-4.27,2.44l-.25.1c-.08.02-.16.04-.25.06-.83.01-.94.65-.72,1.15.21.48-.15,1.43.9,1.37.4-.02.67.21,1,.43.79.52,1.64,1.03,2.61,1.08,1.06.06.97.54.6,1.23-.31.59-.56,1.19.19,1.66,1.04.25,1.48-.35,1.35-1.84.13-.04.26-.09.2-.27,2.16-.45,3.48-1.28,3.54-3.97.05-2.18.65-2.8,2.66-2.48.57.06,1.15.05,1.54.58-.71,1.17-.45,2.49-.55,3.75-.02.27-.56.43-.2.75.19.17.5.1.69-.11.25-.26.64-.48.22-.94-.19-.21-.26-.54.08-.73.94.23.66,1.16.91,1.72.55-.02.21-.69.78-.69.15.54.27,1.13,1.15.65.6-.33.83.04.77.75-.12,1.34-.41,2.68-.26,4.04-1.2-.05-2.24,1.47-3.57.37-.29-.24-.61-.04-.77.21-.28.43.09.45.39.53.58.16.44.7.22.89-.53.47-.51,1.08-.26,1.48.29.45.95.06,1.43.15.33.06.77-.63.92.05.1.48-.41.83-.83.91-.75.14-1.47.34-2.11.75-.6.38-1.18.97-1.3-.34-.02-.24-.3-.26-.37-.19-.41.41-1.19.19-1.42.86-.78-.09-1.4.29-1.56.96-.21.91-.85,1.22-1.55,1.42-1.61.47-2.26,2.12-3.66,2.84-.33.17-.19.63-.15.95.16,1.07-.45,1.64-1.29,2.05-.86.42-1.64.93-2.36,1.58-1,.91-1.64,1.82-1.04,3.28.18.45.39,1.42-.54,1.57-.95.16-1.27-.52-1.2-1.35.13-1.55-1.3-.99-1.95-1.33-.67-.35-1.69-.39-2.48.31-.4.35-.99.44-1.57.32-2.4-.52-3.5.26-4.39,2.63-.57,1.52-1.11,2.99-.63,4.57.27.9.77,1.79,1.73,2.18,1.18.47,2.5-.23,3.1-1.64.14-.32.18-.65.54-.79,1.23-.25,1.75.24,1.57,1.49Z"/>
            <path class="cls-12" d="M717.16,42.34c.85.47.49,1.26.45,1.93,0,.14-.41.83-.73.09-.32-.75-1.11-.65-1.33-.31-.87,1.37-2.11.89-3.28.87,1.42-.79,2.25-2.26,3.59-3.15.55-.08.69.76,1.29.57Z"/>
            <path class="cls-14" d="M689.71,90.63c0,3.93,0,7.87,0,11.8-.44-1.58-.32-3.21-.34-4.81-.03-2.33-.13-4.68.33-6.99Z"/>
            <path class="cls-4" d="M717.16,42.34c-.6.19-.74-.66-1.29-.57.43-.33.87-.66,1.3-.99.26.04.51.07.77.11.04.19.06.45.33.34.2-.08.1-.26-.04-.37.3-.13.61-.31.84.13.2.37.51.51.93.4-.71.7-1.5.89-2.42.42-.18-.09-.37-.46-.6-.14-.16.23.1.46.19.69Z"/>
            <path class="cls-14" d="M764.6,26.97c-3.67,0-7.34,0-11.01,0,3.67-.5,7.34-.53,11.01,0Z"/>
            <path class="cls-8" d="M828.98,99.83c.11-3.4-.46-6.78-.28-10.19.5,3.38.58,6.78.28,10.19Z"/>
            <path class="cls-7" d="M741.27,164.07c1.45-.06,2.91-.15,4.08.97-1.39-.19-2.76-.47-4.08-.97Z"/>
            <path class="cls-7" d="M773.34,165.03c1.05-1.26,2.49-.92,3.84-.95-1.23.52-2.53.74-3.84.95Z"/>
            <path class="cls-7" d="M828.19,107.59c-.92-.54-.65-1.43-.22-1.91.33-.37.4-.8.68-1.13-.09,1.02-.07,2.06-.46,3.04Z"/>
            <path class="cls-13" d="M802.88,42.31c-.9.26-1.3-.47-1.83-.94.21-.07.45-.08.53-.34.51.35,1.26.45,1.31,1.28Z"/>
            <path class="cls-7" d="M786.14,160.98c.43-1.34,1.56-.96,2.51-1.03-.79.47-1.57.94-2.51,1.03Z"/>
            <path class="cls-14" d="M783.54,31.07c-.9-.14-2.09.5-2.52-.93.86.25,1.75.42,2.52.93Z"/>
            <path class="cls-7" d="M825.14,119.66c-.1-1.09.04-2.09.97-2.82-.2.98-.47,1.94-.97,2.82Z"/>
            <path class="cls-8" d="M828.4,86.57c-.67-.02-1.35-.03-1.59-.86.62-.59.91.42,1.43.28.18.16.21.36.16.58Z"/>
            <path class="cls-14" d="M793.38,35.66c-.71-.02-1.69.43-1.59-.95.59.21,1.18.43,1.59.95Z"/>
            <path class="cls-14" d="M794.3,36.21c-.4-.04-.95.16-.94-.57.37.09.81.07.94.57Z"/>
            <path class="cls-4" d="M711,94.74c-.09-.15-.17-.3-.26-.45.08-.03.17-.06.25-.09.25.03.5.06.75.08.62,1.05,1.3.29,1.44-.18.42-1.46,1.76-1.61,2.75-2.24.09-.06.31-.08.31-.06.4,1.06,1.48.38,2.1.83,1.08.79,2.34.73,3.52.55,1.71-.26,2.37.97,3.16,1.97,1.09,1.38,2.29,2.4,4.18,2.15,1.4.59,2.28,1.63,2.64,3.11.41.55.31,1.37.96,1.8.31.57.8.79,1.44.79.71,0,1.35.33,1.76.84.53.66,1.18.72,1.9.74.12.25.33.2.53.15,1.21,0,2.02.92,3.03,1.37.05.21.1.38.37.45,1.7.48,2.23,1.94,1.47,3.61-.62,1.36-1.76,2.42-2.08,3.94-.08.37-.12.66-.06,1.06.31,2.08-.1,4.1-.86,6.04-.51,1.3-1.92,1.26-2.95,1.78-1,.5-2.09.96-1.72,2.36.4,1.47-.42,2.53-1.02,3.67-.32.62-.73,1.19-.84,1.92-.16,1.07-.85,1.63-1.91,1.58-1.13-.06-.98.43-.56,1.11.82,1.3.47,2.07-1.05,2.28-.09-.21-.07-.46-.47-.36-1.4.33-1.05,1.43-1.11,2.36-.6.24-1.24.5-.25,1.06.4.23.32.59.19.74-.53.59-.23,1.48-.83,2.05-.22.22-.28.64.25.91,1,.51,1.12,1.31.66,2.33-.61,1.33.04,2.68,1.68,3.71.45.28,1.4.26,1.05,1.09-.32.78-1.3.6-1.82.38-1.45-.63-2.94-1.26-4.06-2.46-.36-.71-.89-1.28-1.48-1.81-.5-1.35-1.02-2.7-1.48-4.07-.1-.31.09-.62.25-.94.36-.7.22-.81-.54-1.19-.24-.12-.42-.53-.46-.83-.17-1.2-.44-2.37-.85-3.51-.13-1.68.33-3.38-.22-5.04-.09-.06-.17-.12-.26-.18-.77-2.32-.47-4.76-.75-7.13-.13-1.08-.22-2.18-.32-3.27-.12-1.34-1.05-2.21-2.12-2.67-2.3-1-3.36-2.97-4.4-5-.73-1.41-1.28-2.9-2.53-4.03-.56-.5-.92-1.42-.39-2.28.24-.39.39-.86.17-1.21-.91-1.43.03-2.53.76-3.48,1.13-1.48,1.4-2.97.82-4.69.11-.7-.42-1.09-.75-1.57Z"/>
            <path class="cls-4" d="M719.47,43.91c.01-.5.36-.51.72-.51-.13.72.96.79.82,1.52,0,.18,0,.36-.01.53-.33,0-.67,0-1,.01-.28.01-.48.13-.5.44-.02.22.02.42.26.5.25.08.48.09.66-.17.19-.27.39-.52.58-.79.33.02.51-.13.53-.47.62-.27,1.54-.71,1.01-1.36-.75-.92-.46-1.53.01-2.29h-.02c.44.02.91.09,1.06-.5.16-.02.33-.03.49-.05,1.02,0,2.05,0,3.07,0,2.25-.42,3.57,1.49,5.39,2.15.3.11.25.43.24.66-.03.74.33,1.15,1.01,1.33.96.66.79,1.35.06,2.06-.1.08-.2.17-.3.25-.58.2-.83-.34-1.22-.56-.08-.16-.21-.23-.38-.17-.27.09-.16.3-.13.48.47,1.06.31,1.75-1,1.89-.24.03-.7.13-.63.62-.98.05-1.69-.59-2.52-.94,0,0-.05-.05-.05-.05-.31-.97-1.05-1.06-1.91-.98-.22.02-.57.09-.59-.28-.01-.28.23-.46.49-.49.38-.05.77.03,1.14-.05.89-.18,1.65-.69,2.11-1.4.31-.48-.38-.8-.73-1.12-.4-.46-.92-.57-1.5-.5-.78-.21-1.37.06-1.88.68-.46.57-.99,1.08-1.48,1.61-.6,0-1.19-.02-1.79-.02-.45,0-.32.27-.21.51,0,0-.02.02-.02.02-.09,0-.18-.01-.27-.02-.3.26-.6.52-1,.87.52.17.89.3,1.02-.34.09-.08.18-.16.26-.25.51.26,1.39.19,1.23,1.1-.15.86-.88.32-1.33.39-.57.09-.33.3-.18.54-.27.34-.64.21-.98.2-.55-.44-.46-1.17-.78-1.72-.41-.7-.28-1.53-.7-2.27-.38-.67.04-1.22.94-1.1.1.32-.23.82.37.91.13.02.42-.21.41-.22-.15-.34-.34-.67-.77-.7Z"/>
            <path class="cls-7" d="M722.58,64.43c.23-.67,1.01-.45,1.42-.86.07-.07.35-.06.37.19.12,1.32.7.72,1.3.34.64-.4,1.36-.6,2.11-.75.42-.08.93-.42.83-.91-.15-.69-.59,0-.92-.05-.48-.09-1.14.3-1.43-.15-.26-.4-.27-1.01.26-1.48.22-.19.36-.74-.22-.89-.3-.08-.67-.1-.39-.53.16-.25.48-.45.77-.21,1.33,1.11,2.36-.42,3.56-.37.21.04.42.06.57-.15.23-.32.62-.47.86-.22.38.4-.23.64-.39.74-.46.29-.45.88-.91,1.16-.85.5-.23.96.21.96,1.12.02,2.12.56,3.22.59.06.23.23.56-.21.53-.75-.05-1.57.26-2.25-.19-.53-.36-.83.07-.9.31-.23.84-.57,1.72-.32,2.59.18.61-.12.89-.47,1.19-.42.37-.78.17-1.1-.19-.2-.22-.42-.42-.64-.63-.53-.51-.97-.89-1.36.2-.27.78-1,1.08-1.78.7-.35-.17-.52-.18-.88-.04-.42.17-1.02-.15-.73-.63.53-.88-.14-.99-.6-1.29ZM728.8,65.3c.07.03.16.1.21.08.05-.02.07-.13.1-.2-.07-.03-.16-.1-.21-.08-.05.02-.07.13-.1.2Z"/>
            <path class="cls-4" d="M791.79,122.16c-.46-1.26,1.07-2.22.77-3.61-.26-1.21.09-2.25,1.41-2.67.93-.3,1.24-1.19,1.84-1.81.23-.23.35-.68.74-.5.32.15.56.45.64.88.17.9-.28,1.65-.56,2.42-.8,2.21-1.18,4.54-2.17,6.7-.38.83-.85,1.11-1.66.95-.87-.17-1.07-.82-1.03-1.6.01-.21,0-.43,0-.76Z"/>
            <path class="cls-4" d="M733.81,61.86c-1.1-.03-2.1-.58-3.22-.59-.44,0-1.07-.46-.21-.96.46-.27.45-.87.91-1.16.16-.1.77-.35.39-.74-.24-.25-.63-.1-.86.22-.15.21-.36.19-.57.15-.15-1.36.14-2.7.26-4.04.07-.71-.17-1.08-.77-.75-.88.49-1-.11-1.15-.65-.57,0-.23.67-.78.69-.25-.56.02-1.48-.91-1.72-.35.19-.28.52-.08.73.42.46.03.67-.22.94-.2.21-.5.28-.69.11-.35-.31.18-.48.2-.75.1-1.26-.16-2.58.55-3.75.47-.11.62.46,1.02.48.01.51.03,1.03.04,1.54-.09.39.1.5.46.53,1.1.09,1.55-.76,2.12-1.44.13,0,.27,0,.4,0,.61.76.55,1.67.62,2.57.04.49-.26,1.14.47,1.42.02.15.07.26.26.24.41.22.81.44,1.22.66.28.95.28,1.85-.3,2.72-.2.3-.35.79.06,1.01,1.14.6.77,1.62.79,2.54ZM731.17,56.95c-.07-.03-.16-.1-.21-.08-.05.02-.07.13-.1.2.07.03.16.1.21.08.05-.02.07-.13.1-.2ZM727.07,50.41c-.03-.07-.04-.18-.09-.21-.05-.02-.14.04-.21.07.03.07.04.18.09.21.05.02.14-.04.21-.07ZM730.42,52.75c-.03.07-.06.14-.09.21.07.03.16.1.21.08.05-.02.07-.13.1-.2-.07-.03-.14-.06-.21-.09Z"/>
            <path class="cls-7" d="M741.48,106.08c-1.01-.45-1.82-1.36-3.03-1.37-.03-.22.08-.54-.24-.59-.27-.04-.24.25-.29.43-.72-.01-1.37-.08-1.9-.74-.41-.51-1.05-.84-1.76-.84-.63,0-1.12-.23-1.44-.79-.09-.67.74-1.07.5-1.78.18-.05.41-.04.4-.32,0-.03-.05-.08-.08-.08-.28-.02-.28.22-.32.4-.48,0-.97,0-1.45-.01-.36-1.48-1.24-2.52-2.64-3.11.24-.23-1.25-1.02.29-.88.32.03.17-.5.25-.77.1-.31.33-.39.59-.32.43.12.21.34.06.55-.32.45-.03.77.23,1.13.7.96,1.26,2.09,2.76,1.87.52-.08.79.13,1.02.68.36.86,1.09,1.17,1.96.6.63-.41,1.25-.29,2.25-.07-1.34.45-1.93,1.72-3.46,1.27-.11-.03-.02.05.08.06.27.03.02-.15.07-.21-.09-.05-.18-.11-.26-.16-.03.07-.05.13.11.31,1.4,2.13,3.05,2.9,5.25,2.47.37-.07.77-.1,1.14-.05.73.1,1.23.37.41,1.07-.41.35-.46.79-.49,1.25Z"/>
            <path class="cls-7" d="M733.25,55.59c-.41-.22-.81-.44-1.22-.66-.06-.1.11-.46-.26-.24-.73-.28-.43-.93-.47-1.42-.07-.9,0-1.81-.62-2.57-.02-.42.32-.98-.43-1.11l-.07-.09c-.08-.49.39-.6.63-.62,1.31-.14,1.48-.83,1-1.89.23,0,.4-.1.51-.31.39.22.63.76,1.22.56.28.17.68.23.75.63.03.15-.04.33-.1.47-.01.03-.26.02-.32-.05-1.02-1.11-1.1,0-1.59.67,1.17.05,2.14.17,3.12.98-1.19.02-1.79.38-.92,1.7-.86-.33-1.16-.67-1.17-1.25-.01-.47-.35-.81-.72-.68-.51.17-.23.56-.03.91,1.21,2.18.79,2.26.4,3.46.21.04.41.08.61.1.34.03.71,0,.74.49.02.39-.24.48-.56.56-.18.05-.33.23-.5.35ZM731.94,53.67q.73-1.33.03-2.39c-.25.99-.25,1.03-.03,2.39ZM731.45,49.66c-.03.07-.1.16-.08.21.02.05.13.07.2.1.03-.07.1-.16.08-.21-.02-.05-.13-.07-.2-.1Z"/>
            <path class="cls-15" d="M711,94.2c-.08.03-.17.06-.25.09-.69-.32-1.19.89-2.07.11-1.01-.9-1.09-1.92-.91-3.04.07-.41.1-.83.2-1.24.37-.07.81.18,1.13-.25-.31-.44-.76-.18-1.12-.26-.3-.53-.58-1.09-1.32-1.06,0-.16,0-.31,0-.47.34,0,.67-.01,1.01-.02.62-.02.42.65.81.94.43-.56.02-1.63,1.25-1.82,0,.97,0,1.93,0,2.88,0,.15-.09.41-.19.44-1.43.33-.51,1.06-.31,1.67-.16,0-.33,0-.49.01-.33.03-.62.16-.43.53.16.32.42.06.63-.03.21-.1.27-.3.29-.51.16,0,.32,0,.49,0,.48,1.05,1.39.28,2.07.5,0,.18,0,.35.01.53-.47.08-1-.19-1.45.24.24.26.46.5.68.75ZM709,93.21c-.07.11-.19.22-.17.28.03.08.16.18.25.19.17,0,.31-.1.24-.29-.03-.08-.19-.1-.33-.17Z"/>
            <path class="cls-7" d="M785.63,46.02c-.2-1.35-1.5-1.29-2.33-1.82.5-.29,1.09-.46,1.57-.18.51.3.73.33.82-.3.01-.07.08-.18.14-.2.15-.05.32-.05.48-.07-.05,1.42,1.98-.27,1.86,1.25-.14.08-.4.17-.4.25.02,1.33-1.03,1.31-1.89,1.53-.09-.16-.18-.31-.27-.47Z"/>
            <path class="cls-4" d="M755.36,66.74c.01.33.04.67.03,1-.03.88-.34,1.86.99,2.15.26.06.52.41.51.8-1.84-.16-2.49-1.08-1.86-2.83.13-.37-.14-.87.34-1.12Z"/>
            <path class="cls-7" d="M735.34,130.7c.34-1.36,1.11-2.29,1.19-3.6.77,1.62.52,2.4-1.19,3.6Z"/>
            <path class="cls-4" d="M720.49,41.81c-.02-.3-.19-.44-.49-.45.52-.93,1.16-1.49,2.22-.69.11.23.21.46.32.69,0,0,.02-.01.02-.01-.77-.22-1.35.42-2.06.46Z"/>
            <path class="cls-7" d="M724.07,145.85c.59.52,1.12,1.09,1.48,1.81-.25.02-.59-.07-.74.07-.38.34-.62.3-.95-.06-.36-.4-.38-.74.01-1.1.22-.2.16-.47.19-.72Z"/>
            <path class="cls-14" d="M703.05,90.69c.57-.08,1.08.03,1.48.49-.78,0-1.36.13-.66,1.06.2.26.27.55.04.8-.09.1-.31.14-.46.12-.39-.06-.39-.39-.39-.69,0-.59,0-1.18,0-1.78Z"/>
            <path class="cls-13" d="M789.65,116.82c.95-1.25.48-2.72.64-4.09.99,1.06.61,3.49-.64,4.09Z"/>
            <path class="cls-4" d="M733.85,46.99c.74-.71.9-1.4-.06-2.06.63.09,1.57-.34,1.56.85,0,.96-.59,1.31-1.5,1.21Z"/>
            <path class="cls-6" d="M809.75,81.64c.36.16.61.43.82.76-.08,0-.21.05-.24.02-1.68-2.12-4.05-1.43-6.22-1.52-.02-.07-.02-.14,0-.22,1.55-.02,3.09-.05,4.64-.07.25.26.5.53.74.79-.02.19.07.28.26.25Z"/>
            <path class="cls-4" d="M756.67,98.3c-.27-.51.12-.46.4-.46,1.22,0,2.44,0,3.66,0-1.26.97-2.71.34-4.07.45Z"/>
            <path class="cls-4" d="M792.79,92.3c-.74-.34-.52-1.24-.98-1.74.14.11.29.22.43.33.65.47,1.4.16,2.09.27-.29.68-1.27.42-1.54,1.13Z"/>
            <path class="cls-7" d="M705.15,85.45c.18-1.24-.34-1.74-1.57-1.49.47-1.03,1.44-.65,1.85-.29.38.34.64,1.31-.28,1.77Z"/>
            <path class="cls-13" d="M711,94.74c.33.48.86.87.75,1.57-.43.05-1.14.66-.99-.49.05-.35-.17-.54-.53-.52-.03-.59.39-.55.77-.55Z"/>
            <path class="cls-11" d="M774.61,132.28c.77,0,1.54,0,2.31,0-.89,1.3-1.42,1.3-2.31,0Z"/>
            <path class="cls-11" d="M727.16,40.79c-1.02,0-2.05,0-3.07,0,1.02-.6,2.05-1.25,3.07,0Z"/>
            <path class="cls-7" d="M728.68,137.86c.06-.93-.28-2.03,1.11-2.36.41-.1.39.15.47.36,0,.04,0,.11-.02.12-.76.34-1.42.73-1.12,1.75-.15.04-.3.08-.45.12Z"/>
            <path class="cls-8" d="M804.1,80.67c-.01.07-.01.15,0,.22-.54.12-.86.49-1.07.98-.6-.04-1.01-.29-1-.97.37.03.49-.29.68-.5.11.05.21.1.32.15.35.04.7.08,1.06.12Z"/>
            <path class="cls-11" d="M711,94.2c-.22-.24-.44-.49-.68-.75.45-.43.98-.16,1.45-.24,1.01.38-.34.71-.03,1.07-.25-.03-.5-.06-.75-.08Z"/>
            <path class="cls-11" d="M764.43,52.9c-.74.32-1.48.37-2.56.02,1.06-.38,1.81-.3,2.56-.02Z"/>
            <path class="cls-14" d="M707.65,88.07c-.34,0-.67.01-1.01.02-.46-.07-.98.13-1.38-.31.81-.02,1.69-.74,2.38.29Z"/>
            <path class="cls-11" d="M728.37,38.52c-1.08.37-1.82.32-2.87.08,1.03-.45,1.77-.39,2.87-.08Z"/>
            <path class="cls-14" d="M711.76,92.68c-.68-.22-1.59.55-2.07-.5.41-.31,1.56-.03,2.07.5Z"/>
            <path class="cls-6" d="M720.52,130.09c.09.06.17.12.26.18,0,1.65.02,3.3.02,4.95-.45-.22-.31-.65-.32-.99-.01-1.38.02-2.76.04-4.14Z"/>
            <path class="cls-7" d="M720.8,135.22c0-1.65-.02-3.3-.02-4.95.55,1.66.09,3.37.22,5.04-.07-.01-.14-.04-.19-.09Z"/>
            <path class="cls-7" d="M719.22,138.73c-.31-.74-.36-1.48,0-2.56.37,1.07.3,1.82,0,2.56Z"/>
            <path class="cls-14" d="M722.54,41.36c-.11-.23-.21-.46-.32-.69.18-.25.37-.5.56-.76.42.22.17.98.82.93-.15.59-.62.52-1.06.52Z"/>
            <path class="cls-14" d="M799.21,115.96c.34.57.32,1.14.09,1.92-.5-.74-.34-1.33-.09-1.92Z"/>
            <path class="cls-4" d="M718.23,40.85c.14.11.23.29.04.37-.27.11-.3-.15-.33-.34.1,0,.2-.02.3-.03Z"/>
            <path class="cls-15" d="M774.28,66.02c.19.07.48.1.46.36-.1,1.43,1,2.3,1.52,3.44.22.48.4,1.13,1,.71.52-.36,1.22-.93.49-1.76-.34-.38-.53-.74-.09-1.21.71-.77,1.39-.67,1.79.33.26.66.42,1.35.66,2.01.46,1.27,1.53,1.03,2.5.93,1.16-.12,2.26.46,3.45.21.44-.09.62.51.57.97-.05.5-.13,1-.24,1.49-.39,1.7-.56,1.55-2.31,1.78-2.49.34-4.7-.32-6.91-1.21-1.01-.41-1.6.3-1.7.95-.21,1.3-.85,1.03-1.6.69-1.57-.71-2.9-1.92-4.69-2.14-.4-.05-.56-.41-.37-.9.26-.68.33-1.4-.14-2.06-1.7-.45-3.44-.34-5.16-.42-.15,0-.32.25-.47.39-.79-.12-1.4.37-1.95.74-.85.56-1.73.56-2.65.58-.4,0-.65-.19-.71-.58-.08-.49.38-.51.64-.64.25-.12.59-.05.88-.11.81-.16,1.62-.31,1.9-1.29.47-1.66,1.8-2.71,2.86-3.95.23-.26.43-.42.73-.36.91.18,1.73,0,2.48-.54.62-.44,1.15-.09,1.36.37.49,1.07,1.42,1.62,2.35,2.1.73.37,1.29.74,1.44,1.57.05.27.16.53.47.49.26-.04.36-.29.45-.54.33-.89.4-1.63-.77-1.95-.26-.07-.47-.35-.7-.53.08-.57.54-.62.82-.35.51.48,1.09.37,1.66.41ZM772.85,73.42c.38.34.52.92,1.19.73.07-.02.17-.25.13-.29-.32-.37-.58-.9-1.33-.44Z"/>
            <path class="cls-12" d="M797.58,70.6c-.59-.11-1.16-.45-1.73-.79-.77-.45-.35-1.06-.24-1.66.11-.6-.05-1.2-.56-1.57-.87-.62-1.12-1.61-1.61-2.47-.17-.29-.18-.73.13-.95.74-.52,1.47-1.09,2.39-1.27.51-.1.92.11,1.14.58.27.56-.37.67-.58.77-.95.44-.75.97-.21,1.55.4.43.83.83,1.27,1.22.4.36,1.36.43.45,1.33-.44.43.21.92.46,1.32.33.54.29,1,.02,1.54-.2.4-.52.37-.93.39Z"/>
            <path class="cls-15" d="M787.42,66.85c-1.96-.8-3.89-.84-5.82.13-.51.26-.79.05-.87-.63-.14-1.26.28-2.31.96-3.29.6-.89,1.28-.86,1.95.02.32.41.59.93,1.24.86.15.11.25.34.08.39-.55.17-.5.52-.29.86.3.46.45-.1.69-.17.24-.06.53-.11.69-.26.26-.26.99-.65-.06-.85-.26-.05-.31-.25-.35-.46,0,0,.01-.03.01-.03.48,0,.66-.68,1.21-.51.02.77.19,1.34,1.13,1.51,1.06.19,1.51,1.06,1.74,2.05-.81-.12-1.65-.4-2.31.37Z"/>
            <path class="cls-12" d="M789.2,83.97c1.21,1.44,2.4,2.9,2.58,4.88.07.71-.36.8-.91.74-1.44-1.43-2.5-3.05-2.67-5.14-.12-1.09.4-.86,1-.49Z"/>
            <path class="cls-14" d="M789.2,83.97c-.59-.37-1.12-.6-1,.49-.97-1.58-1.98-3.14-2.52-4.95-.11-.38-.19-.83.11-1.08.24-.19.66-.12.85.27.87,1.75,2.63,3.06,2.55,5.26Z"/>
            <path class="cls-12" d="M797.88,79.88c-.85-.32-1.23-1.17-1.85-1.75-.33-.31-.43-1.13.15-1.47.43-.25.97-.01,1.22.49.62,1.21,1.68,1.9,2.83,2.49-.74.56-1.57.15-2.35.25Z"/>
            <path class="cls-14" d="M774.28,66.02c-.58-.04-1.15.07-1.66-.41-.28-.27-.74-.22-.82.35-.92-.38-1.18-1.31-1.7-2.02-.29-.39.02-.53.17-.74.25-.34.4-.05.6.1,1.13.91,2.28,1.81,3.42,2.71Z"/>
            <path class="cls-14" d="M797.88,79.88c.78-.09,1.62.31,2.35-.25,1-.31,2.06-.79,2.49.76-.19.21-.31.53-.68.5-.42-.15-.66-.77-1.25-.49-.78.17-1.77-.58-2.35.51-.36-.25-.56-.59-.56-1.04Z"/>
            <path class="cls-7" d="M785.63,46.02c.09.16.18.31.27.47-.75.79-1.64,1.36-2.76,1.21-.31-.04-.99-.26-.82-.91.17-.64.73-.45,1.16-.39.77.11,1.5.14,2.15-.38Z"/>
            <path class="cls-7" d="M785.64,63.45c.04.21.1.41.35.46,1.04.2.32.59.06.85-.16.16-.45.2-.69.26-.23.06-.39.63-.69.17-.22-.33-.26-.69.29-.86.17-.05.07-.28-.08-.39.25-.16.51-.33.76-.49Z"/>
            <path class="cls-15" d="M798.44,80.92c.59-1.09,1.57-.34,2.35-.51-.49.66-1.06,1.14-1.97,1.02-.34-.04-.4-.23-.38-.51Z"/>
            <path class="cls-4" d="M763.02,70.59c.16-.14.32-.4.47-.39,1.73.07,3.47-.04,5.16.42-1.88,0-3.76-.02-5.64-.03Z"/>
            <path class="cls-14" d="M790.87,89.6c.55.06.98-.04.91-.74.52.6.8,1.25.46,2.05-.14-.11-.29-.22-.43-.33-.08-.55-.82-.46-.94-.97Z"/>
            <path class="cls-4" d="M804.1,80.67c-.35-.04-.7-.08-1.06-.12,1.9-.26,3.8-.35,5.7.05-1.55.02-3.09.05-4.64.07Z"/>
            <path class="cls-7" d="M787.42,66.85c.67-.78,1.5-.49,2.31-.37-.65.85-1.48.65-2.31.37Z"/>
            <path class="cls-11" d="M786.86,62.92c-.55-.17-.73.52-1.21.51-.28-.54-.27-1.04.38-1.23.52-.15.92.07.83.73Z"/>
            <path class="cls-7" d="M809.75,81.64c-.2.03-.28-.06-.26-.25.09.08.18.17.26.25Z"/>
            <path class="cls-7" d="M719.22,47.29c.32.55.23,1.28.78,1.72.2.64.58,1.3,1.28.92.5-.27.03-.79-.3-1.12-.14-.25-.39-.45.18-.54.45-.07,1.18.47,1.33-.39.16-.92-.72-.84-1.23-1.11,0-.09,0-.18,0-.27,0,0,.02-.02.02-.02.53.06,1.05.05,1.52-.24.81.48.84,1.77,2.05,1.88.37.03.22.56.26.88-2.01-.32-2.61.29-2.66,2.48-.06,2.7-1.38,3.53-3.54,3.97-.47-.55-1.07-.91-1.7-1.21-.32-.15-.8-.03-.82-.58.3-.06.67.15.93-.34-.57-.17-1.08-.45-1.41-.92-.61-.87-1.28-.93-2.07-.27-.44-.47.29-1.32-.53-1.66,1.07-1.42,2.81-1.7,4.27-2.44.53-.27,1.07-.58,1.66-.75Z"/>
            <path class="cls-15" d="M725.11,49.01c-.04-.32.11-.85-.26-.88-1.21-.11-1.24-1.4-2.05-1.88.17-.07.41,0,.48-.26.5-.54,1.02-1.05,1.48-1.61.5-.62,1.09-.89,1.88-.68.1.41-.24.96.36,1.2.58.23.59-.43.9-.63.07-.04.16-.05.24-.07.35.32,1.05.64.73,1.12-.46.71-1.23,1.22-2.11,1.4-.37.07-.76,0-1.14.05-.25.03-.5.21-.49.49.02.37.37.3.59.28.86-.08,1.6.01,1.91.98-.33,0-.65.01-.98.02.03-.17.24-.39-.09-.47-.09-.02-.28.08-.29.14-.05.29.19.3.38.33.33.61.67.61,1.03.03.83.35,1.55.99,2.52.94,0,0,.07.09.07.09.06.37-.94.76.03,1.11-.57.68-1.02,1.52-2.12,1.44-.36-.03-.54-.14-.46-.53.49-.07,1.32.25,1.34-.46.02-.62-.61-1.11-1.38-1.08-.41-.02-.55-.6-1.02-.48-.38-.53-.97-.53-1.54-.58Z"/>
            <path class="cls-7" d="M713.3,50.49c.83.34.1,1.19.53,1.66.85.51,1.7,1.01,2.55,1.52.02.56.5.43.82.58.63.3,1.24.66,1.7,1.21.06.18-.07.23-.2.27-.76.06-1.22.31-.9,1.2.13.35-.21.48-.45.64-.75-.48-.5-1.07-.19-1.66.37-.69.46-1.17-.6-1.23-.97-.05-1.82-.56-2.61-1.08-.33-.21-.59-.45-1-.43-1.04.05-.69-.9-.9-1.37-.22-.5-.11-1.14.72-1.15.07.53-.15,1.13.32,1.81.28-.79.24-1.33-.07-1.87l.25-.1Z"/>
            <path class="cls-12" d="M720.49,41.81c.71-.04,1.29-.68,2.06-.46-.47.76-.76,1.37-.01,2.29.53.65-.39,1.09-1.01,1.36-.17-.02-.35-.05-.52-.07.14-.73-.95-.8-.82-1.52.2-.51-.26-1.15.3-1.6Z"/>
            <path class="cls-7" d="M717.36,57.58c.24-.15.58-.29.45-.64-.33-.89.14-1.15.9-1.2.13,1.49-.31,2.09-1.35,1.84Z"/>
            <path class="cls-7" d="M713.05,50.59c.31.54.35,1.08.07,1.87-.47-.68-.25-1.28-.32-1.81.08-.02.16-.04.25-.06Z"/>
            <path class="cls-7" d="M707.97,89.62c.37.07.81-.18,1.12.26-.32.43-.76.18-1.13.25,0-.17,0-.34,0-.51Z"/>
            <path class="cls-7" d="M733.31,100.42c.24.71-.59,1.11-.5,1.78-.64-.43-.55-1.24-.96-1.8.48,0,.97,0,1.45.01h0Z"/>
            <path class="cls-7" d="M737.91,104.56c.05-.18.02-.47.29-.43.32.05.21.37.24.59-.21.05-.41.1-.53-.15Z"/>
            <path class="cls-11" d="M728.14,44.2c-.08.02-.17.03-.24.07-.31.2-.32.86-.9.63-.59-.24-.26-.79-.36-1.2.58-.06,1.1.04,1.5.5Z"/>
            <path class="cls-7" d="M720.98,48.81c.33.33.81.85.3,1.12-.71.38-1.08-.28-1.28-.92.34,0,.71.14.98-.2Z"/>
            <path class="cls-4" d="M721,45.46c-.19.26-.4.52-.58.79-.18.25-.41.25-.66.17-.24-.08-.28-.29-.26-.5.02-.31.22-.43.5-.44.33-.01.67,0,1-.01,0,0,0,0,0,0Z"/>
            <path class="cls-4" d="M723.29,45.99c-.07.25-.31.19-.48.26-.47.29-.99.3-1.52.24-.11-.24-.24-.51.21-.51.6,0,1.19,0,1.79.02Z"/>
            <path class="cls-4" d="M719.47,43.91c.44.03.62.36.77.7,0,.01-.28.24-.41.22-.6-.09-.27-.59-.37-.91,0,0,0,0,0,0Z"/>
            <path class="cls-4" d="M721.01,47.01c-.12.64-.49.51-1.02.34.4-.35.7-.61,1-.87,0,.18,0,.35.01.53Z"/>
            <path class="cls-4" d="M721.01,44.93c.17.02.35.05.52.07-.02.34-.2.49-.53.47,0,0,0,0,0,0,0-.18,0-.36.01-.53Z"/>
            <path class="cls-7" d="M732.33,46.69c-.11.21-.28.3-.51.31-.04-.18-.14-.39.13-.48.17-.06.3.02.38.17Z"/>
            <path class="cls-4" d="M721.01,47.01c0-.18,0-.35-.01-.53.09,0,.18.01.27.02,0,.09,0,.18,0,.27-.09.08-.17.16-.26.25Z"/>
            <path class="cls-9" d="M769.75,46.48s.07.05.1.07c-.04-.02-.08-.03-.12-.05,0,0,.02-.02.02-.02Z"/>
            <path class="cls-7" d="M728.8,65.3c.03-.07.05-.18.1-.2.05-.02.14.05.21.08-.03.07-.05.18-.1.2-.05.02-.14-.05-.21-.08Z"/>
            <path class="cls-7" d="M727.67,50.07c.77-.03,1.4.45,1.38,1.08-.02.72-.85.39-1.34.46-.01-.51-.03-1.03-.04-1.54Z"/>
            <path class="cls-7" d="M730.29,50.7c-.97-.34.03-.74-.03-1.11.75.13.41.69.43,1.11-.13,0-.27,0-.4,0Z"/>
            <path class="cls-4" d="M731.17,56.95c-.03.07-.05.18-.1.2-.05.02-.14-.05-.21-.08.03-.07.05-.18.1-.2.05-.02.14.05.21.08Z"/>
            <path class="cls-4" d="M727.07,50.41c-.07.03-.16.1-.21.07-.05-.02-.06-.13-.09-.21.07-.03.16-.1.21-.07.05.02.06.13.09.21Z"/>
            <path class="cls-4" d="M730.42,52.75c.07.03.14.06.21.09-.03.07-.05.18-.1.2-.05.02-.14-.05-.21-.08.03-.07.06-.14.09-.21Z"/>
            <path class="cls-7" d="M731.78,54.69c.36-.23.19.13.26.24-.18.03-.24-.09-.26-.24Z"/>
            <path class="cls-7" d="M733.3,100.41c.05-.18.04-.41.32-.4.03,0,.08.05.08.08.02.29-.21.28-.4.32,0,0,0,0,0,0Z"/>
            <path class="cls-7" d="M734.97,101.26c.04-.09.07-.16.09-.22.09.05.18.11.26.16-.05.06.2.24-.07.21-.1-.01-.19-.1-.29-.15Z"/>
            <path class="cls-7" d="M731.94,53.67c-.22-1.37-.22-1.4.03-2.39q.7,1.06-.03,2.39Z"/>
            <path class="cls-7" d="M731.45,49.66c.07.03.18.05.2.1.02.05-.05.14-.08.21-.07-.03-.18-.05-.2-.1-.02-.05.05-.14.08-.21Z"/>
            <path class="cls-7" d="M709.21,92.18c-.02.21-.08.41-.29.51-.21.09-.47.35-.63.03-.19-.37.1-.5.43-.53.16-.01.33,0,.49-.01,0,0,0,0,0,0Z"/>
            <path class="cls-7" d="M709,93.21c.14.07.3.1.33.17.07.19-.07.3-.24.29-.09,0-.22-.1-.25-.19-.02-.06.1-.17.17-.28Z"/>
            <path class="cls-11" d="M772.85,73.42c.74-.46,1.01.07,1.33.44.03.04-.06.27-.13.29-.68.2-.81-.38-1.19-.73Z"/>
            <path class="cls-7" d="M716.39,53.67c-.85-.51-1.7-1.01-2.55-1.52.79-.67,1.46-.61,2.07.27.33.47.83.75,1.41.92-.26.49-.63.28-.93.34Z"/>
            <path class="cls-7" d="M726.65,48.54c.33,0,.65-.01.98-.02,0,0,.05.05.05.05-.36.59-.7.58-1.03-.03h0Z"/>
            <path class="cls-7" d="M726.65,48.54c-.2-.04-.44-.04-.38-.33.01-.07.21-.16.29-.14.33.08.12.3.09.47,0,0,0,0,0,0Z"/>
          </g>
        </g>
        <circle class="cls-5" cx="759.47" cy="96.55" r="69.96"/>
      </g>
    </g>
    <path class="cls-3" d="M1038.72,214.41c-9.81-19.66-19.14-24.35-25.71-25.13-15.75-1.86-22.77,17.93-42.19,17.6-12.29-.21-26.32-9.14-32.63-20.49-7.28-13.11-.32-22.04-9.48-34.32-4.34-5.81-5.34-3.07-17.98-14.38-14.21-12.72-18.09-16.44-19.94-21.57-.42-1.17-1.52-4.52-3.67-8.9-3.02-6.18-5.2-8.44-6.25-9.44-2.3-2.2-4.64-3.49-6.24-4.24"/>
    <g>
      <g>
        <path class="cls-1" d="M1038.28,213.65c8.45.06,13.59,7.74,10.31,15.51-2.01,4.77-6.36,7.89-8.89,12.31-.91,1.59-1.57.41-2.4-.35-3.89-3.56-7.54-7.39-9.63-12.24-3.32-7.71,2.1-15.3,10.61-15.24ZM1039.64,229.22c1.84-.1,3.92-1.63,3.88-4.92-.04-3.25-2.1-4.96-5.29-4.9-3.31.06-5.78,1.66-5.57,5.24.19,3.18,2.45,4.65,6.97,4.58Z"/>
        <path class="cls-1" d="M1038.3,246.41c1.97-.12,3.16.99,3.19,2.77.03,1.83-1.22,2.9-3.17,2.76-1.88-.13-3.69-.58-3.52-2.99.15-2.04,1.83-2.37,3.49-2.54Z"/>
      </g>
      <path class="cls-1" d="M861.43,102.16c-.08-3.69-.11-7.29-.27-10.89-.09-2.01.45-2.41,2.06-1.47,1.51.88,3.06,1.64,4.73,1.91,3.74.6,4.47,4.13,5.35,7.74,1.9-1.22.47-6.73,5.11-3.69-4-3.12-.94-4.72-.03-6.52-.25-.31-.37-.51-.39-.49-4.99,2.9-8.26-1.86-12-4.62-1.45-1.07-1.36-1.74-.11-2.64,2.22-1.6,4.39-3.3,6.56-4.97.4-.31,1.11-.48.85-1.28-.27-.83-1.01-1.09-1.64-1.01-.96.13-1.93.33-2.8.75-1.6.76-2.95.72-4.53-.76-1.69-1.58-3.53-.69-3.75,1.51-.33,3.34-1.23,3.91-3.97,2.41-2.36-1.29-4.68-2.68-7.24-3.11-1.05-.18-2.44-.65-2.91.7-.37,1.08.7,2.07,1.33,2.94,1.79,2.46,4.24,3.96,6.43,5.84,1.75,1.51,3.49,3.17.45,5.14-1.32.85-2,2.95.55,3.81,2.3.77,2.87,2.55,3.26,4.8.3,1.72.69,3.52,2.98,3.89Z"/>
    </g>
  </g>
</svg>